<mxfile host="65bd71144e">
    <diagram id="m7ksONzy4T9KRQMt7aJn" name="Page-1">
        <mxGraphModel dx="452" dy="240" grid="1" gridSize="10" guides="1" tooltips="1" connect="1" arrows="1" fold="1" page="1" pageScale="1" pageWidth="827" pageHeight="1169" math="0" shadow="0">
            <root>
                <mxCell id="0"/>
                <mxCell id="1" parent="0"/>
                <mxCell id="2" value="Library" style="swimlane;fontStyle=0;childLayout=stackLayout;horizontal=1;startSize=26;fillColor=none;horizontalStack=0;resizeParent=1;resizeParentMax=0;resizeLast=0;collapsible=1;marginBottom=0;" vertex="1" parent="1">
                    <mxGeometry x="140" y="520" width="140" height="78" as="geometry"/>
                </mxCell>
                <mxCell id="4" value="+ name: str" style="text;strokeColor=none;fillColor=none;align=left;verticalAlign=top;spacingLeft=4;spacingRight=4;overflow=hidden;rotatable=0;points=[[0,0.5],[1,0.5]];portConstraint=eastwest;" vertex="1" parent="2">
                    <mxGeometry y="26" width="140" height="26" as="geometry"/>
                </mxCell>
                <mxCell id="5" value="+ address: str" style="text;strokeColor=none;fillColor=none;align=left;verticalAlign=top;spacingLeft=4;spacingRight=4;overflow=hidden;rotatable=0;points=[[0,0.5],[1,0.5]];portConstraint=eastwest;" vertex="1" parent="2">
                    <mxGeometry y="52" width="140" height="26" as="geometry"/>
                </mxCell>
                <mxCell id="6" value="Book" style="swimlane;fontStyle=0;childLayout=stackLayout;horizontal=1;startSize=26;fillColor=none;horizontalStack=0;resizeParent=1;resizeParentMax=0;resizeLast=0;collapsible=1;marginBottom=0;" vertex="1" parent="1">
                    <mxGeometry x="140" y="700" width="140" height="104" as="geometry"/>
                </mxCell>
                <mxCell id="7" value="+ title: str" style="text;strokeColor=none;fillColor=none;align=left;verticalAlign=top;spacingLeft=4;spacingRight=4;overflow=hidden;rotatable=0;points=[[0,0.5],[1,0.5]];portConstraint=eastwest;" vertex="1" parent="6">
                    <mxGeometry y="26" width="140" height="26" as="geometry"/>
                </mxCell>
                <mxCell id="8" value="+ pages: int" style="text;strokeColor=none;fillColor=none;align=left;verticalAlign=top;spacingLeft=4;spacingRight=4;overflow=hidden;rotatable=0;points=[[0,0.5],[1,0.5]];portConstraint=eastwest;" vertex="1" parent="6">
                    <mxGeometry y="52" width="140" height="26" as="geometry"/>
                </mxCell>
                <mxCell id="9" value="+ edition: date" style="text;strokeColor=none;fillColor=none;align=left;verticalAlign=top;spacingLeft=4;spacingRight=4;overflow=hidden;rotatable=0;points=[[0,0.5],[1,0.5]];portConstraint=eastwest;" vertex="1" parent="6">
                    <mxGeometry y="78" width="140" height="26" as="geometry"/>
                </mxCell>
                <mxCell id="10" value="&lt;&lt;Enumeration&gt;&gt;&#10;ContactM" style="swimlane;fontStyle=0;childLayout=stackLayout;horizontal=1;startSize=26;fillColor=none;horizontalStack=0;resizeParent=1;resizeParentMax=0;resizeLast=0;collapsible=1;marginBottom=0;" vertex="1" parent="1">
                    <mxGeometry x="330" y="500" width="140" height="104" as="geometry"/>
                </mxCell>
                <mxCell id="11" value="EMAIL" style="text;strokeColor=none;fillColor=none;align=left;verticalAlign=top;spacingLeft=4;spacingRight=4;overflow=hidden;rotatable=0;points=[[0,0.5],[1,0.5]];portConstraint=eastwest;" vertex="1" parent="10">
                    <mxGeometry y="26" width="140" height="26" as="geometry"/>
                </mxCell>
                <mxCell id="12" value="TELEPHONE" style="text;strokeColor=none;fillColor=none;align=left;verticalAlign=top;spacingLeft=4;spacingRight=4;overflow=hidden;rotatable=0;points=[[0,0.5],[1,0.5]];portConstraint=eastwest;" vertex="1" parent="10">
                    <mxGeometry y="52" width="140" height="26" as="geometry"/>
                </mxCell>
                <mxCell id="13" value="LETTER" style="text;strokeColor=none;fillColor=none;align=left;verticalAlign=top;spacingLeft=4;spacingRight=4;overflow=hidden;rotatable=0;points=[[0,0.5],[1,0.5]];portConstraint=eastwest;" vertex="1" parent="10">
                    <mxGeometry y="78" width="140" height="26" as="geometry"/>
                </mxCell>
                <mxCell id="14" value="Author" style="swimlane;fontStyle=0;childLayout=stackLayout;horizontal=1;startSize=26;fillColor=none;horizontalStack=0;resizeParent=1;resizeParentMax=0;resizeLast=0;collapsible=1;marginBottom=0;" vertex="1" parent="1">
                    <mxGeometry x="460" y="692" width="320" height="112" as="geometry"/>
                </mxCell>
                <mxCell id="15" value="+ name: str" style="text;strokeColor=none;fillColor=none;align=left;verticalAlign=top;spacingLeft=4;spacingRight=4;overflow=hidden;rotatable=0;points=[[0,0.5],[1,0.5]];portConstraint=eastwest;" vertex="1" parent="14">
                    <mxGeometry y="26" width="320" height="26" as="geometry"/>
                </mxCell>
                <mxCell id="16" value="+ email: int" style="text;strokeColor=none;fillColor=none;align=left;verticalAlign=top;spacingLeft=4;spacingRight=4;overflow=hidden;rotatable=0;points=[[0,0.5],[1,0.5]];portConstraint=eastwest;" vertex="1" parent="14">
                    <mxGeometry y="52" width="320" height="26" as="geometry"/>
                </mxCell>
                <mxCell id="18" value="" style="line;strokeWidth=1;fillColor=none;align=left;verticalAlign=middle;spacingTop=-1;spacingLeft=3;spacingRight=3;rotatable=0;labelPosition=right;points=[];portConstraint=eastwest;strokeColor=inherit;" vertex="1" parent="14">
                    <mxGeometry y="78" width="320" height="8" as="geometry"/>
                </mxCell>
                <mxCell id="19" value="notify(sms: str =&quot;message&quot;, contact_method: ContactM)" style="text;strokeColor=none;fillColor=none;align=left;verticalAlign=top;spacingLeft=4;spacingRight=4;overflow=hidden;rotatable=0;points=[[0,0.5],[1,0.5]];portConstraint=eastwest;" vertex="1" parent="14">
                    <mxGeometry y="86" width="320" height="26" as="geometry"/>
                </mxCell>
                <mxCell id="20" value="Literature" style="swimlane;fontStyle=0;childLayout=stackLayout;horizontal=1;startSize=26;fillColor=none;horizontalStack=0;resizeParent=1;resizeParentMax=0;resizeLast=0;collapsible=1;marginBottom=0;" vertex="1" parent="1">
                    <mxGeometry x="20" y="880" width="140" height="52" as="geometry"/>
                </mxCell>
                <mxCell id="24" value="Science" style="swimlane;fontStyle=0;childLayout=stackLayout;horizontal=1;startSize=26;fillColor=none;horizontalStack=0;resizeParent=1;resizeParentMax=0;resizeLast=0;collapsible=1;marginBottom=0;" vertex="1" parent="1">
                    <mxGeometry x="170" y="880" width="140" height="52" as="geometry"/>
                </mxCell>
                <mxCell id="25" value="Fantasy" style="swimlane;fontStyle=0;childLayout=stackLayout;horizontal=1;startSize=26;fillColor=none;horizontalStack=0;resizeParent=1;resizeParentMax=0;resizeLast=0;collapsible=1;marginBottom=0;" vertex="1" parent="1">
                    <mxGeometry x="320" y="880" width="140" height="52" as="geometry"/>
                </mxCell>
                <mxCell id="26" value="" style="endArrow=block;endSize=16;endFill=0;html=1;" edge="1" parent="1" source="20" target="6">
                    <mxGeometry width="160" relative="1" as="geometry">
                        <mxPoint x="100" y="910" as="sourcePoint"/>
                        <mxPoint x="500" y="750" as="targetPoint"/>
                    </mxGeometry>
                </mxCell>
                <mxCell id="27" value="" style="endArrow=block;endSize=16;endFill=0;html=1;" edge="1" parent="1" source="24" target="6">
                    <mxGeometry width="160" relative="1" as="geometry">
                        <mxPoint x="120.25974025974006" y="890" as="sourcePoint"/>
                        <mxPoint x="179.4805194805192" y="814.0000000000002" as="targetPoint"/>
                    </mxGeometry>
                </mxCell>
                <mxCell id="28" value="" style="endArrow=block;endSize=16;endFill=0;html=1;" edge="1" parent="1" source="25" target="6">
                    <mxGeometry width="160" relative="1" as="geometry">
                        <mxPoint x="284.0903030303028" y="999" as="sourcePoint"/>
                        <mxPoint x="269.99939393939377" y="813.0000000000002" as="targetPoint"/>
                    </mxGeometry>
                </mxCell>
                <mxCell id="30" value="" style="endArrow=none;html=1;edgeStyle=orthogonalEdgeStyle;" edge="1" parent="1" source="2" target="6">
                    <mxGeometry relative="1" as="geometry">
                        <mxPoint x="340" y="750" as="sourcePoint"/>
                        <mxPoint x="500" y="750" as="targetPoint"/>
                    </mxGeometry>
                </mxCell>
                <mxCell id="31" value="Has" style="edgeLabel;resizable=0;html=1;align=left;verticalAlign=bottom;" connectable="0" vertex="1" parent="30">
                    <mxGeometry x="-1" relative="1" as="geometry">
                        <mxPoint y="62" as="offset"/>
                    </mxGeometry>
                </mxCell>
                <mxCell id="33" value="1" style="edgeLabel;html=1;align=center;verticalAlign=middle;resizable=0;points=[];" vertex="1" connectable="0" parent="30">
                    <mxGeometry x="-0.8578" relative="1" as="geometry">
                        <mxPoint x="10" y="5" as="offset"/>
                    </mxGeometry>
                </mxCell>
                <mxCell id="41" value="" style="endArrow=none;html=1;edgeStyle=orthogonalEdgeStyle;" edge="1" parent="1" source="6" target="14">
                    <mxGeometry relative="1" as="geometry">
                        <mxPoint x="10" y="720" as="sourcePoint"/>
                        <mxPoint x="170" y="720" as="targetPoint"/>
                    </mxGeometry>
                </mxCell>
                <mxCell id="42" value="*" style="edgeLabel;resizable=0;html=1;align=left;verticalAlign=bottom;" connectable="0" vertex="1" parent="41">
                    <mxGeometry x="-1" relative="1" as="geometry"/>
                </mxCell>
                <mxCell id="43" value="1..*" style="edgeLabel;resizable=0;html=1;align=right;verticalAlign=bottom;" connectable="0" vertex="1" parent="41">
                    <mxGeometry x="1" relative="1" as="geometry"/>
                </mxCell>
                <mxCell id="44" value="WrittenBy" style="edgeLabel;html=1;align=center;verticalAlign=middle;resizable=0;points=[];" vertex="1" connectable="0" parent="41">
                    <mxGeometry x="-0.0797" relative="1" as="geometry">
                        <mxPoint as="offset"/>
                    </mxGeometry>
                </mxCell>
            </root>
        </mxGraphModel>
    </diagram>
</mxfile>